/* XPM */
static char * anvil_xpm[] = {
"16 16 14 1",
" 	c None",
".	c #000000",
"+	c #3C3531",
"@	c #707070",
"#	c #5F5F5F",
"$	c #414141",
"%	c #292320",
"&	c #2B2725",
"*	c #261F1B",
"=	c #221913",
"-	c #353433",
";	c #40342E",
">	c #513F36",
",	c #79665C",
"                ",
"                ",
"                ",
"                ",
"  ............  ",
"  +@@@@@@@@#$$  ",
"   %&*=======+  ",
"    **======-   ",
"     +=====.    ",
"   ;>>>>>>>>>   ",
"   ;>>>>,,,>>   ",
"   ;>,,,,,,>>   ",
"   ;>>>>>>>>>   ",
"   ;;;;;;;;;;   ",
"                ",
"                "};
