/* XPM */ 
static char * file_xpm[] = {
/* width height ncolors chars_per_pixel */
"16 16 6 1",
/* colors */
" 	c None",
"!	c #808080",
"#	c black",
"$	c white",
"%	c #0000FF",
"&	c #C0C0C0",
/* pixels */
"!!!!!!!!!!!!!   ",
"!$$$$$$$$$$$!!  ",
"!$$$$$$$$$$$!$! ",
"!$$%%%$$%%$%!###",
"!$%%$%%$%%$%%$&#",
"!$%%$%%$%%$%%$&#",
"!$$%%%$$%%$%%$&#",
"!$$$$$$$$$$$$$&#",
"!$%%$%%$$%%%$$&#",
"!$%%$%%$%%$%%$&#",
"!$%%$%%$%%$%%$&#",
"!$%%$%%$$%%%$$&#",
"!&$$$$$$&&&&$$&#",
"!##&&&&!####!$&#",
"   !####    #!&#",
"             ###"};
