/* XPM */
static char *folder_open_xpm[] = {
"16 16 38 3",
"000 c #9C7918",
"001 c #9D7A19",
"002 c #A5720C",
"003 c None",
"004 c #BF9928",
"005 c #C09618",
"006 c #C69A18",
"007 c #C69A19",
"008 c #C79C1B",
"009 c #C9A020",
"010 c #CEA221",
"011 c #CFA225",
"012 c #D7B83F",
"013 c #CEBC5B",
"014 c #DEB242",
"015 c #DABF6B",
"016 c #E2B342",
"017 c #EFBA42",
"018 c #E7BE52",
"019 c #E2C14F",
"020 c #FFC75A",
"021 c #FFD76B",
"022 c #FDD56F",
"023 c #FFDF7B",
"024 c #F0E479",
"025 c #FFE37B",
"026 c #FFD784",
"027 c #FFE784",
"028 c #FFEB84",
"029 c #F7F089",
"030 c #FFF38C",
"031 c #FFF794",
"032 c #FFF39C",
"033 c #FBF996",
"034 c #FFFF9C",
"035 c #FFFFA5",
"036 c #FFFBF7",
"037 c gray100",
"003003003003003003003003003003003003003003003003",
"003003010010010010003003003003003003003003003003",
"003010037037037037006003003003003003003003003003",
"006037034034034034037006006006006006006003003003",
"006032030030030030030037037037037037006001003003",
"006028019006006006006006006006006006006006002003",
"006026006015037037036037037037037037027037002003",
"006022006029034034034034034034034034020033002003",
"006016009035031031031031031031031031018013002003",
"006011012034028028028028028028028027017002003003",
"006007024034025025025025025025025023014002003003",
"006008034021021021021021021021021021004002003003",
"003005005005005005005005005005005005000003003003",
"003003000000000000000000000000000000003003003003",
"003003003003003003003003003003003003003003003003",
"003003003003003003003003003003003003003003003003"
};
