/* XPM */
static char *folder_closed_xpm[] = {
"16 16 25 3",
"000 c #9C7918",
"001 c #A57D10",
"002 c None",
"003 c #B58E18",
"004 c #BD9E31",
"005 c #DEB239",
"006 c #DEB242",
"007 c #DEB64A",
"008 c #E7BE52",
"009 c #FFCB63",
"010 c #FFD36B",
"011 c #FFD76B",
"012 c #FFDF7B",
"013 c #FFE37B",
"014 c #F7D784",
"015 c #FFE784",
"016 c #FFEB84",
"017 c #FFF38C",
"018 c #FFF78C",
"019 c #FFF39C",
"020 c #FFFB94",
"021 c #FFFF9C",
"022 c #FFF7A5",
"023 c #FFFBF7",
"024 c gray100",
"002002002002002002002002002002002002002002002002",
"002002002002002002002002002002002002002002002002",
"002002004004004004002002002002002002002002002002",
"002004024024024023004002002002002002002002002002",
"004024021021021021024003003003003003001002002002",
"004019018018018018017024024024024024001002002002",
"004016015003003003003003003003003003003003003002",
"004012003024023023023023023024024024014023003000",
"004010003021021021021022021021021021009021003000",
"004009003021020020020020020020020017008021003000",
"004009003021015015015015015015015016007022003000",
"004009003021013013013013013013013012006021003000",
"004009003021011011011011011011011011005019003000",
"002003003003003003003003003003003003003003003000",
"002002000000000000000000000000000000000000000002",
"002002002002002002002002002002002002002002002002"
};
