/* XPM */ 
static char * new_archive_xpm[] = {
"16 16 11 1",
" 	c None",
"!	c black",
"#	c #040404",
"$	c #003333",
"%	c #0099CC",
"&	c #33CCCC",
"'	c #66CCFF",
"(	c #6699CC",
")	c #006699",
"*	c #99CCFF",
"+	c white",
"    !    ####$  ",
" !     ! %&&'($ ",
"  ! ! !######)*$",
"   ! !++++#  #*#",
"! !  !++++#  #*#",
"   !!+++++#  #*#",
"  ! #+++++#  #*#",
" !  #+++++#  #*#",
"    #+++++#  #*#",
"    #+++++#  #*#",
"    #########)*$",
"      #)%%&&'($ ",
"       ######$  ",
"           #%   ",
"        #)#%#)#)",
"        )#)#%#)#"};
